<svg width="185" height="48" viewBox="0 0 185 48" fill="none" xmlns="http://www.w3.org/2000/svg">
<rect width="185" height="48" rx="24" fill="#FFA62B"/>
<path d="M43.8786 24.016H46.0766V27.488C45.1059 28.5707 43.7619 29.112 42.0446 29.112C40.6072 29.112 39.3986 28.636 38.4186 27.684C37.4479 26.732 36.9626 25.5327 36.9626 24.086C36.9626 22.63 37.4572 21.4167 38.4466 20.446C39.4452 19.4753 40.6446 18.99 42.0446 18.99C43.4539 18.99 44.6766 19.452 45.7126 20.376L44.5786 22.014C44.1399 21.6313 43.7339 21.37 43.3606 21.23C42.9966 21.0807 42.5999 21.006 42.1706 21.006C41.3399 21.006 40.6399 21.2907 40.0706 21.86C39.5012 22.42 39.2166 23.162 39.2166 24.086C39.2166 25.01 39.4872 25.752 40.0286 26.312C40.5792 26.8627 41.2326 27.138 41.9886 27.138C42.7446 27.138 43.3746 26.9933 43.8786 26.704V24.016ZM54.5366 27.908C53.6872 28.7107 52.6886 29.112 51.5406 29.112C50.4019 29.112 49.4592 28.762 48.7126 28.062C47.9659 27.3527 47.5926 26.4053 47.5926 25.22C47.5926 24.0347 47.9706 23.092 48.7266 22.392C49.4919 21.692 50.3926 21.342 51.4286 21.342C52.4646 21.342 53.3419 21.6547 54.0606 22.28C54.7886 22.9053 55.1526 23.764 55.1526 24.856V25.976H49.6646C49.7299 26.3867 49.9446 26.7227 50.3086 26.984C50.6726 27.2453 51.0832 27.376 51.5406 27.376C52.2779 27.376 52.8846 27.1287 53.3606 26.634L54.5366 27.908ZM53.0246 24.478C52.9779 24.03 52.8099 23.6847 52.5206 23.442C52.2312 23.1993 51.8766 23.078 51.4566 23.078C51.0459 23.078 50.6679 23.204 50.3226 23.456C49.9772 23.708 49.7766 24.0487 49.7206 24.478H53.0246ZM59.2908 22.98V26.354C59.2908 26.6433 59.3655 26.872 59.5148 27.04C59.6642 27.1987 59.8415 27.278 60.0468 27.278C60.4388 27.278 60.7702 27.1007 61.0408 26.746L61.8248 28.216C61.1715 28.8133 60.4808 29.112 59.7528 29.112C59.0342 29.112 58.4228 28.874 57.9188 28.398C57.4242 27.922 57.1768 27.2733 57.1768 26.452V22.98H56.2948V21.468H57.1768V19.214H59.2908V21.468H61.1108V22.98H59.2908ZM76.9682 24.044C76.9682 25.0613 76.7069 25.976 76.1842 26.788C75.6709 27.6 74.9756 28.2067 74.0982 28.608C74.1822 28.748 74.3129 28.8693 74.4902 28.972C74.6769 29.0653 74.8682 29.112 75.0642 29.112C75.2602 29.112 75.4516 29.0793 75.6382 29.014C75.8249 28.958 75.9742 28.888 76.0862 28.804C76.3289 28.608 76.5016 28.4167 76.6042 28.23L77.7382 29.588C76.9356 30.4373 75.9322 30.862 74.7282 30.862C74.1682 30.862 73.6176 30.708 73.0762 30.4C72.5349 30.092 72.1196 29.658 71.8302 29.098C70.3836 29.098 69.1656 28.6173 68.1762 27.656C67.1869 26.6853 66.6922 25.4813 66.6922 24.044C66.6922 22.6067 67.1869 21.4073 68.1762 20.446C69.1656 19.4753 70.3836 18.99 71.8302 18.99C73.2769 18.99 74.4949 19.4753 75.4842 20.446C76.4736 21.4073 76.9682 22.6067 76.9682 24.044ZM74.7422 24.058C74.7422 23.1807 74.4622 22.434 73.9022 21.818C73.3422 21.202 72.6516 20.894 71.8302 20.894C71.0182 20.894 70.3322 21.202 69.7722 21.818C69.2122 22.434 68.9322 23.1807 68.9322 24.058C68.9322 24.926 69.2122 25.668 69.7722 26.284C70.3322 26.8907 71.0182 27.194 71.8302 27.194C72.6516 27.194 73.3422 26.8907 73.9022 26.284C74.4622 25.668 74.7422 24.926 74.7422 24.058ZM83.6803 25.528V21.468H85.7943V29H83.6803V28.006C83.1577 28.7433 82.481 29.112 81.6503 29.112C80.829 29.112 80.1383 28.8553 79.5783 28.342C79.0183 27.8193 78.7383 27.0493 78.7383 26.032V21.468H80.8523V25.57C80.8523 26.7273 81.277 27.306 82.1263 27.306C82.5463 27.306 82.9103 27.1567 83.2183 26.858C83.5263 26.55 83.6803 26.1067 83.6803 25.528ZM89.6574 25.234C89.6574 25.85 89.8301 26.354 90.1754 26.746C90.5301 27.1287 90.9781 27.32 91.5194 27.32C92.0701 27.32 92.5181 27.1287 92.8634 26.746C93.2181 26.354 93.3954 25.85 93.3954 25.234C93.3954 24.618 93.2181 24.114 92.8634 23.722C92.5181 23.33 92.0701 23.134 91.5194 23.134C90.9781 23.134 90.5301 23.33 90.1754 23.722C89.8301 24.114 89.6574 24.618 89.6574 25.234ZM95.5094 25.234C95.5094 26.326 95.1314 27.2453 94.3754 27.992C93.6194 28.7387 92.6674 29.112 91.5194 29.112C90.3807 29.112 89.4334 28.7387 88.6774 27.992C87.9214 27.2453 87.5434 26.326 87.5434 25.234C87.5434 24.142 87.9214 23.2227 88.6774 22.476C89.4334 21.72 90.3807 21.342 91.5194 21.342C92.6674 21.342 93.6194 21.72 94.3754 22.476C95.1314 23.2227 95.5094 24.142 95.5094 25.234ZM99.6385 22.98V26.354C99.6385 26.6433 99.7131 26.872 99.8625 27.04C100.012 27.1987 100.189 27.278 100.394 27.278C100.786 27.278 101.118 27.1007 101.388 26.746L102.172 28.216C101.519 28.8133 100.828 29.112 100.1 29.112C99.3818 29.112 98.7705 28.874 98.2665 28.398C97.7718 27.922 97.5245 27.2733 97.5245 26.452V22.98H96.6425V21.468H97.5245V19.214H99.6385V21.468H101.458V22.98H99.6385ZM110.022 27.908C109.173 28.7107 108.174 29.112 107.026 29.112C105.888 29.112 104.945 28.762 104.198 28.062C103.452 27.3527 103.078 26.4053 103.078 25.22C103.078 24.0347 103.456 23.092 104.212 22.392C104.978 21.692 105.878 21.342 106.914 21.342C107.95 21.342 108.828 21.6547 109.546 22.28C110.274 22.9053 110.638 23.764 110.638 24.856V25.976H105.15C105.216 26.3867 105.43 26.7227 105.794 26.984C106.158 27.2453 106.569 27.376 107.026 27.376C107.764 27.376 108.37 27.1287 108.846 26.634L110.022 27.908ZM108.51 24.478C108.464 24.03 108.296 23.6847 108.006 23.442C107.717 23.1993 107.362 23.078 106.942 23.078C106.532 23.078 106.154 23.204 105.808 23.456C105.463 23.708 105.262 24.0487 105.206 24.478H108.51ZM123.3 19.214H125.484V29H123.3L118.638 22.868V29H116.454V19.214H118.498L123.3 25.514V19.214ZM129.568 25.234C129.568 25.85 129.74 26.354 130.086 26.746C130.44 27.1287 130.888 27.32 131.43 27.32C131.98 27.32 132.428 27.1287 132.774 26.746C133.128 26.354 133.306 25.85 133.306 25.234C133.306 24.618 133.128 24.114 132.774 23.722C132.428 23.33 131.98 23.134 131.43 23.134C130.888 23.134 130.44 23.33 130.086 23.722C129.74 24.114 129.568 24.618 129.568 25.234ZM135.42 25.234C135.42 26.326 135.042 27.2453 134.286 27.992C133.53 28.7387 132.578 29.112 131.43 29.112C130.291 29.112 129.344 28.7387 128.588 27.992C127.832 27.2453 127.454 26.326 127.454 25.234C127.454 24.142 127.832 23.2227 128.588 22.476C129.344 21.72 130.291 21.342 131.43 21.342C132.578 21.342 133.53 21.72 134.286 22.476C135.042 23.2227 135.42 24.142 135.42 25.234ZM140.963 29H138.793L136.231 21.468H138.401L139.871 26.018L141.341 21.468H143.371L144.841 26.018L146.311 21.468H148.495L145.933 29H143.749L142.363 24.898L140.963 29Z" fill="white"/>
</svg>
