<svg width="154" height="48" viewBox="0 0 154 48" fill="none" xmlns="http://www.w3.org/2000/svg">
<path d="M37.2181 29V19.214H39.4021V27.054H43.5741V29H37.2181ZM51.6891 27.908C50.8398 28.7107 49.8411 29.112 48.6931 29.112C47.5544 29.112 46.6118 28.762 45.8651 28.062C45.1184 27.3527 44.7451 26.4053 44.7451 25.22C44.7451 24.0347 45.1231 23.092 45.8791 22.392C46.6444 21.692 47.5451 21.342 48.5811 21.342C49.6171 21.342 50.4944 21.6547 51.2131 22.28C51.9411 22.9053 52.3051 23.764 52.3051 24.856V25.976H46.8171C46.8824 26.3867 47.0971 26.7227 47.4611 26.984C47.8251 27.2453 48.2358 27.376 48.6931 27.376C49.4304 27.376 50.0371 27.1287 50.5131 26.634L51.6891 27.908ZM50.1771 24.478C50.1304 24.03 49.9624 23.6847 49.6731 23.442C49.3838 23.1993 49.0291 23.078 48.6091 23.078C48.1984 23.078 47.8204 23.204 47.4751 23.456C47.1298 23.708 46.9291 24.0487 46.8731 24.478H50.1771ZM60.4174 29H58.4434V28.09C57.9021 28.7713 57.2301 29.112 56.4274 29.112C55.6341 29.112 54.9667 28.8833 54.4254 28.426C53.8841 27.9593 53.6134 27.3433 53.6134 26.578C53.6134 25.8033 53.8934 25.2247 54.4534 24.842C55.0134 24.4593 55.7787 24.268 56.7494 24.268H58.3174V24.226C58.3174 23.4233 57.8927 23.022 57.0434 23.022C56.6794 23.022 56.2921 23.0967 55.8814 23.246C55.4801 23.386 55.1394 23.5633 54.8594 23.778L53.9214 22.42C54.9107 21.7013 56.0401 21.342 57.3094 21.342C58.2241 21.342 58.9707 21.5707 59.5494 22.028C60.1281 22.4853 60.4174 23.2087 60.4174 24.198V29ZM58.3034 26.13V25.766H56.9874C56.1474 25.766 55.7274 26.0273 55.7274 26.55C55.7274 26.8207 55.8254 27.0307 56.0214 27.18C56.2267 27.32 56.5161 27.39 56.8894 27.39C57.2627 27.39 57.5894 27.278 57.8694 27.054C58.1587 26.8207 58.3034 26.5127 58.3034 26.13ZM66.4939 23.316C65.8686 23.316 65.4019 23.54 65.0939 23.988C64.7859 24.4267 64.6319 25.01 64.6319 25.738V29H62.5319V21.468H64.6319V22.462C64.9026 22.154 65.2386 21.8927 65.6399 21.678C66.0506 21.4633 66.4659 21.3513 66.8859 21.342L66.8999 23.316H66.4939ZM70.5877 24.8V29H68.4877V21.468H70.5877V22.308C71.2224 21.664 71.9364 21.342 72.7297 21.342C73.5231 21.342 74.1857 21.622 74.7177 22.182C75.2591 22.742 75.5297 23.4887 75.5297 24.422V29H73.4297V24.744C73.4297 23.5867 73.0051 23.008 72.1557 23.008C71.7357 23.008 71.3671 23.162 71.0497 23.47C70.7417 23.7687 70.5877 24.212 70.5877 24.8ZM90.4946 22.84L87.8486 28.188H86.5466L83.9146 22.84V29H81.7306V19.214H84.6846L87.2046 24.59L89.7386 19.214H92.6786V29H90.4946V22.84ZM96.758 25.234C96.758 25.85 96.9307 26.354 97.276 26.746C97.6307 27.1287 98.0787 27.32 98.62 27.32C99.1707 27.32 99.6187 27.1287 99.964 26.746C100.319 26.354 100.496 25.85 100.496 25.234C100.496 24.618 100.319 24.114 99.964 23.722C99.6187 23.33 99.1707 23.134 98.62 23.134C98.0787 23.134 97.6307 23.33 97.276 23.722C96.9307 24.114 96.758 24.618 96.758 25.234ZM102.61 25.234C102.61 26.326 102.232 27.2453 101.476 27.992C100.72 28.7387 99.768 29.112 98.62 29.112C97.4813 29.112 96.534 28.7387 95.778 27.992C95.022 27.2453 94.644 26.326 94.644 25.234C94.644 24.142 95.022 23.2227 95.778 22.476C96.534 21.72 97.4813 21.342 98.62 21.342C99.768 21.342 100.72 21.72 101.476 22.476C102.232 23.2227 102.61 24.142 102.61 25.234ZM108.332 23.316C107.706 23.316 107.24 23.54 106.932 23.988C106.624 24.4267 106.47 25.01 106.47 25.738V29H104.37V21.468H106.47V22.462C106.74 22.154 107.076 21.8927 107.478 21.678C107.888 21.4633 108.304 21.3513 108.724 21.342L108.738 23.316H108.332ZM116.85 27.908C116 28.7107 115.002 29.112 113.854 29.112C112.715 29.112 111.772 28.762 111.026 28.062C110.279 27.3527 109.906 26.4053 109.906 25.22C109.906 24.0347 110.284 23.092 111.04 22.392C111.805 21.692 112.706 21.342 113.742 21.342C114.778 21.342 115.655 21.6547 116.374 22.28C117.102 22.9053 117.466 23.764 117.466 24.856V25.976H111.978C112.043 26.3867 112.258 26.7227 112.622 26.984C112.986 27.2453 113.396 27.376 113.854 27.376C114.591 27.376 115.198 27.1287 115.674 26.634L116.85 27.908ZM115.338 24.478C115.291 24.03 115.123 23.6847 114.834 23.442C114.544 23.1993 114.19 23.078 113.77 23.078C113.359 23.078 112.981 23.204 112.636 23.456C112.29 23.708 112.09 24.0487 112.034 24.478H115.338Z" fill="#00A0C1"/>
<rect x="0.5" y="0.5" width="153" height="47" rx="23.5" stroke="#00A0C1"/>
</svg>
